name processed_emg_signals
nRows=90
nColumns=7
 
endheader
time	RGLTMED	RRF	RADDLONG	RST	RTA	RGM
1.355	0.1183778791017408	0.1307807142879986	0.0644571726364942	0.0626196301426712	0.4355140076606953	0.6703938601789091
1.356	0.1155041727692405	0.1302704711140336	0.0642560651026641	0.0614291586708275	0.4333201595678365	0.6641941029427643
1.357	0.1127157015758518	0.1297775635558508	0.0640574136739813	0.0602571066488006	0.4311032042544488	0.6580489256583241
1.358	0.1100129691846242	0.129302016868894	0.0638613383484075	0.0591042445073149	0.4288642912863206	0.6519633927203042
1.359	0.1073963936187475	0.1288438295796948	0.0636679545169132	0.0579713060553613	0.426604599863234	0.6459424853057271
1.36	0.1048663090214918	0.128402973853195	0.0634773726938371	0.0568589880292899	0.4243253370958414	0.6399910938941991
1.361	0.102422967477575	0.1279793959029638	0.0632896982557063	0.0557679497112186	0.422027736291616	0.6341140109801521
1.362	0.1000665408904974	0.127573016442674	0.0631050311894322	0.0546988126162412	0.4197130552568508	0.6283159239935885
1.363	0.0977971229106578	0.1271837311770099	0.0629234658506888	0.0536521602479016	0.4173825746202736	0.6226014084449879
1.364	0.0956147309095392	0.1268114113299326	0.0627450907332626	0.0526285379211143	0.4150375961825361	0.616974921309052
1.365	0.0935193079954964	0.1264559042080247	0.0625699882500786	0.0516284526516934	0.4126794412947286	0.6114407946613055
1.366	0.0915107250670137	0.1261170337963415	0.0623982345265161	0.050652373111349	0.4103094492680503	0.6060032295809535
1.367	0.0895887828994136	0.1257946013839467	0.062229899206598	0.0497007296469002	0.4079289758160199	0.600666290332813
1.368	0.0877532142610516	0.1254883862161369	0.0620650452725235	0.0487739143622599	0.4055393915297616	0.5954338988402202
1.369	0.0860036860548991	0.1251981461702789	0.061903728877964	0.0478722812616386	0.4031420803860047	0.5903098294598413
1.37	0.0843398014812677	0.1249236184522038	0.0617459991954704	0.0469961464522777	0.4007384382865741	0.585297704068238
1.371	0.0827611022171775	0.1246645203102523	0.0615918982782122	0.0461457884049904	0.3983298716272764	0.5804009874689783
1.372	0.0812670706077545	0.1244205497643165	0.0614414609362604	0.0453214482706945	0.3959177958933366	0.5756229831282489
1.373	0.0798571318647834	0.1241913863475316	0.0612947146275826	0.0445233302511589	0.3935036342779267	0.5709668292463893
1.374	0.0785306562675337	0.1239766918586353	0.0611516793639782	0.0437516020221347	0.3910888163200021	0.5664354951724556
1.375	0.0772869613608375	0.1237761111233767	0.061012367632199	0.0430063952071937	0.3886747765577056	0.562031778168588
1.3760000000000001	0.076125314145471	0.1235892727636122	0.0608767843305	0.0422878059005403	0.3862629531939506	0.5577583005302523
1.377	0.0750449332558454	0.1234157899730847	0.0607449267208255	0.0415958952371023	0.3838547867712465	0.5536175070675763
1.3780000000000001	0.0740449911200852	0.1232552612992376	0.0606167843967562	0.0409306900081672	0.3814517188532739	0.5496116629520381
1.379	0.0731246160976291	0.1231072714306909	0.0604923392673185	0.0402921833207304	0.379055190710731	0.5457428519316102
1.3800000000000001	0.0722828945896637	0.1229713919902363	0.0603715655567491	0.0396803352987717	0.3766666420088494	0.5420129749161959
1.381	0.0715188731179337	0.1228471823333842	0.0602544298204142	0.0390950738245819	0.3742875094937149	0.5384237489336707
1.3820000000000001	0.070831560367749	0.1227341903524315	0.0601408909771482	0.0385362953183566	0.3719192256745501	0.5349767064553114
1.383	0.0702199291911508	0.1226319532859347	0.0600309003583304	0.0380038655542269	0.369563217499507	0.531673195087797
1.3840000000000001	0.0696829185664309	0.1225399985333267	0.0599244017740387	0.0374976205108993	0.3672209050234191	0.5285143776274718
1.385	0.0692194355105337	0.1224578444742705	0.0598213315966142	0.0370173672550014	0.3648937000671089	0.5255012324713679
1.3860000000000001	0.0688283569415307	0.1223850012921966	0.0597216188619031	0.0365628848551234	0.3625830048692165	0.5226345543782839
1.387	0.0685085314890576	0.1223209718013565	0.0596251853883895	0.0361339253244937	0.3602902107325697	0.5199149555721841
1.3880000000000001	0.0682587812513254	0.1222652522765446	0.0595319459143319	0.0357302145901341	0.3580166966679471	0.5173428671790171
1.389	0.0680779034980701	0.1222173332846007	0.0594418082529495	0.0353514534862898	0.3557638280383177	0.5149185409870721
1.3900000000000001	0.0679646723192893	0.1221767005167076	0.0593546734656192	0.034997318769921	0.3535329552065542	0.5126420515202262
1.391	0.0679178402201606	0.1221428356203601	0.0592704360529358	0.0346674641559875	0.3513254121892057	0.510513298412572
1.3920000000000001	0.0679361396628165	0.1221152170298422	0.059188984163486	0.0343615213702209	0.3491425153185602	0.5085320090720702
1.393	0.0680182845557523	0.1220933207938254	0.0591101998201269	0.0340791012170478	0.3469855619150152	0.506697741619893
1.3940000000000001	0.0681629716917603	0.1220766213985742	0.0590339591635901	0.0338197946602921	0.3448558289717128	0.5050098880909498
1.395	0.0683688821353123	0.1220645925850245	0.0589601327131984	0.0335831739142289	0.3427545718534585	0.5034676778801246
1.3960000000000001	0.0686346825604068	0.1220567081578499	0.0588885856444251	0.0333687935425724	0.3406830230120816	0.5020701814175836
1.397	0.0689590265400245	0.1220524427845195	0.0588191780828975	0.0331761915629403	0.3386423907206178	0.5008163140557996
1.3980000000000001	0.0693405557883829	0.1220512727822519	0.0587517654143873	0.0330048905543896	0.336633857828909	0.4997048401501756
1.399	0.0697779013572164	0.122052676890642	0.0586861986101947	0.0328543987656892	0.3346585805433551	0.4987343773148711
1.4000000000000001	0.0702696847871415	0.1220561370277036	0.058622324567336	0.0327242112221136	0.332717687233599	0.497903400835316
1.401	0.070814519215189	0.1220611390271493	0.0585599864627952	0.0326138108286135	0.3308122772690055	0.4972102482190818
1.4020000000000001	0.0714110104393636	0.1220671733549173	0.0584990241210197	0.032522669467434	0.3289434198879119	0.4966531238669486
1.403	0.0720577579411545	0.122073735803516	0.0584392743937603	0.0324502490883565	0.3271121531027487	0.4962301038461488
1.4040000000000001	0.0727533558669068	0.122080328163356	0.0583805715511888	0.0323960027898925	0.3253194826442516	0.4959391407480358
1.405	0.073496393968982	0.1220864588709162	0.0583227476831903	0.0323593758899391	0.3235663809481053	0.4957780686129108
1.4060000000000001	0.0742854585077353	0.1220916436342065	0.0582656331096151	0.03233980698441	0.3218537861872484	0.4957446079054582
1.407	0.0751191331152303	0.122095406036432	0.0582090567982043	0.0323367289924842	0.3201826013527652	0.4958363705249241
1.408	0.0759959996216214	0.1220972781191031	0.0581528467888227	0.0323495701870593	0.318553693385787	0.4960508648347456
1.409	0.0769146388449312	0.1220968009461415	0.0580968306225371	0.0323777552090453	0.3169678923622107	0.4963855006967487
1.41	0.0778736313448477	0.1220935251506947	0.0580408357739464	0.0324207060641241	0.3154259907314382	0.4968375944955088
1.411	0.0788715581410316	0.1220870114665302	0.0579846900851225	0.0324778431006236	0.313928742609972	0.4974043741394748
1.412	0.0799070013963601	0.1220768312458156	0.0579282221994495	0.0325485859671777	0.3124768631301854	0.4980829840275658
1.413	0.0809785450655557	0.1220625669649858	0.0578712619936939	0.0326323545489298	0.3110710278442907	0.4988704899727745
1.414	0.082084775509709	0.1220438127201906	0.0578136410067453	0.032728569881025	0.3097118721830236	0.4997638840770823
1.415	0.0832242820773	0.1220201747135383	0.0577551928635629	0.0328366550382188	0.3083999909682817	0.5007600895538856
1.416	0.0843956576524742	0.1219912717310808	0.0576957536931099	0.0329560359994485	0.3071359379789624	0.5018559654950654
1.417	0.085597499171377	0.1219567356132401	0.0576351625391208	0.0330861424862149	0.3059202255694949	0.5030483115801883
1.418	0.0868284081074344	0.121916211718151	0.0575732617627821	0.0332264087737238	0.3047533243411521	0.5043338727254655
1.419	0.0880869909263746	0.1218693593781203	0.0575098974364351	0.0333762744737253	0.3036356628666765	0.5057093436705278
1.42	0.0893718595117594	0.1218158523490856	0.0574449197274323	0.0335351852880568	0.3025676274691354	0.5071713735014766
1.421	0.0906816315617888	0.1217553792526179	0.0573781832712436	0.033702593731824	0.3015495620560575	0.5087165701091801
1.422	0.0920149309580262	0.1216876440096435	0.0573095475327736	0.033877959825161	0.3005817680097343	0.5103415045818416
1.423	0.0933703881067543	0.1216123662647121	0.0572388771548188	0.03406075175243	0.2996645041342965	0.5120427155310461
1.424	0.0947466402537225	0.1215292817995291	0.0571660422926166	0.0342504464877619	0.2987979866595228	0.5138167133507381
1.425	0.096142331773253	0.1214381429342663	0.0570909189336032	0.0344465303858957	0.2979823893008084	0.5156599844093164
1.426	0.0975561144329461	0.121338718915155	0.0570133892017563	0.0346484997372875	0.2972178433742159	0.5175689951759379
1.427	0.0989866476355913	0.1212307962868072	0.0569333416461212	0.0348558612866545	0.2965044379653317	0.5195401962834577
1.428	0.1004325986402669	0.1211141792477473	0.0568506715132982	0.0350681327141792	0.2958422201505212	0.5215700265315769
1.429	0.101892642764985	0.1209886899875596	0.0567652810036782	0.0352848430789002	0.2952311952689835	0.5236549168347311
1.43	0.1033654635735669	0.12085416900399	0.0566770795112053	0.0355055332240101	0.294671327243789	0.5257912941197982
1.431	0.1048497530497483	0.1207104753981717	0.0565859838463785	0.035729756144077	0.294162538949853	0.5279755851786431
1.432	0.1063442117617683	0.1205574871461342	0.0564919184421554	0.0359570773143834	0.2937047126265323	0.5302042204800197
1.433	0.1078475490207339	0.1203951013446688	0.0563948155423997	0.0361870749828017	0.2932976903323593	0.5324736379446545
1.434	0.1093584830360916	0.1202232344295601	0.0562946153724983	0.0364193404247554	0.29294127443932	0.5347802866865276
1.435	0.1108757410713669	0.1200418223642118	0.0561912662918554	0.0366534781619646	0.2926352281638839	0.5371206307226867
1.436	0.1123980596033531	0.1198508207968531	0.0560847249279576	0.0368891061458397	0.2923792761318414	0.5394911526530972
1.437	0.1139241844879533	0.1196502051848533	0.0559749562918005	0.0371258559065029	0.2921731049738171	0.5418883573112574
1.438	0.1154528711359561	0.1194399708851052	0.0558619338744078	0.0373633726686088	0.2920163639482889	0.5443087753853105
1.439	0.1169828847021298	0.1192201332099403	0.0557456397241736	0.0376013154351662	0.2919086655892841	0.5467489670083104
1.44	0.118513000291018	0.1189907274484539	0.0556260645047875	0.0378393570408249	0.2918495863765634	0.5492055253152174
1.441	0.1200420031828564	0.118751808853517	0.0555032075336392	0.0380771841760764	0.2918386674265831	0.5516750799632185
1.442	0.121568689082985	0.1185034525949057	0.0553770768006445	0.0383144973839598	0.2918754152030476	0.5541543006114058
1.443	0.1230918643980054	0.1182457536791807	0.055247688967594	0.038551011030834	0.2919593022458569	0.5566399003554076
1.444	0.1246103465418598	0.1179788268368892	0.0551150693480444	0.0387864532526943	0.2920897679171039	0.5591286391119865
